<mxfile host="Electron" agent="Mozilla/5.0 (Windows NT 10.0; Win64; x64) AppleWebKit/537.36 (KHTML, like Gecko) draw.io/28.0.4 Chrome/138.0.7204.97 Electron/37.2.1 Safari/537.36" version="28.0.4">
  <diagram name="Strona-1" id="AP6OHYsFdswR4pAqVuqg">
    <mxGraphModel dx="815" dy="485" grid="1" gridSize="10" guides="1" tooltips="1" connect="1" arrows="1" fold="1" page="1" pageScale="1" pageWidth="1920" pageHeight="1200" math="0" shadow="0">
      <root>
        <mxCell id="0" />
        <mxCell id="1" parent="0" />
        <mxCell id="_ybv_rkcB9CRCWcr4xD5-19" value="" style="rounded=0;whiteSpace=wrap;html=1;dashed=1;dashPattern=1 2;fillColor=none;" vertex="1" parent="1">
          <mxGeometry x="360" y="190" width="520" height="490" as="geometry" />
        </mxCell>
        <mxCell id="KbhzVzWAwsDYyx5UwJqk-5" value="" style="rounded=0;whiteSpace=wrap;html=1;fillColor=none;dashed=1;dashPattern=8 8;" parent="1" vertex="1">
          <mxGeometry x="180" y="240" width="120" height="400" as="geometry" />
        </mxCell>
        <mxCell id="KbhzVzWAwsDYyx5UwJqk-6" value="Sources" style="rounded=0;whiteSpace=wrap;html=1;fillColor=default;strokeColor=none;fontSize=19;labelBackgroundColor=default;" parent="1" vertex="1">
          <mxGeometry x="190" y="220" width="100" height="40" as="geometry" />
        </mxCell>
        <mxCell id="KbhzVzWAwsDYyx5UwJqk-9" value="" style="rounded=0;whiteSpace=wrap;html=1;fillColor=none;dashed=1;dashPattern=8 8;" parent="1" vertex="1">
          <mxGeometry x="940" y="240" width="123" height="400" as="geometry" />
        </mxCell>
        <mxCell id="KbhzVzWAwsDYyx5UwJqk-10" value="Consume" style="rounded=0;whiteSpace=wrap;html=1;fillColor=default;strokeColor=none;fontSize=19;labelBackgroundColor=default;" parent="1" vertex="1">
          <mxGeometry x="950" y="225" width="100" height="40" as="geometry" />
        </mxCell>
        <mxCell id="KbhzVzWAwsDYyx5UwJqk-11" value="Bronze Layer" style="rounded=0;whiteSpace=wrap;html=1;fillColor=#ffcc99;strokeColor=#36393d;opacity=70;fontSize=15;fontStyle=1" parent="1" vertex="1">
          <mxGeometry x="402" y="280" width="100" height="40" as="geometry" />
        </mxCell>
        <mxCell id="KbhzVzWAwsDYyx5UwJqk-12" value="" style="rounded=0;whiteSpace=wrap;html=1;fillColor=none;strokeColor=#FFB570;strokeWidth=2;fontColor=#ffffff;" parent="1" vertex="1">
          <mxGeometry x="402" y="330" width="100" height="310" as="geometry" />
        </mxCell>
        <mxCell id="KbhzVzWAwsDYyx5UwJqk-13" value="Silver Layer" style="rounded=0;whiteSpace=wrap;html=1;fillColor=#eeeeee;strokeColor=#36393d;opacity=70;fontSize=15;fontStyle=1;labelBackgroundColor=none;" parent="1" vertex="1">
          <mxGeometry x="560.5" y="280" width="100" height="40" as="geometry" />
        </mxCell>
        <mxCell id="KbhzVzWAwsDYyx5UwJqk-14" value="" style="rounded=0;whiteSpace=wrap;html=1;fillColor=#f5f5f5;fontColor=#333333;strokeColor=#666666;strokeWidth=2;" parent="1" vertex="1">
          <mxGeometry x="560.5" y="330" width="100" height="310" as="geometry" />
        </mxCell>
        <mxCell id="KbhzVzWAwsDYyx5UwJqk-15" value="Gold Layer" style="rounded=0;whiteSpace=wrap;html=1;fillColor=#fff2cc;strokeColor=#d6b656;opacity=70;fontSize=15;fontStyle=1;" parent="1" vertex="1">
          <mxGeometry x="722" y="280" width="100" height="40" as="geometry" />
        </mxCell>
        <mxCell id="KbhzVzWAwsDYyx5UwJqk-16" value="" style="rounded=0;whiteSpace=wrap;html=1;fillColor=#fff2cc;strokeColor=#d6b656;strokeWidth=2;" parent="1" vertex="1">
          <mxGeometry x="722" y="330" width="100" height="310" as="geometry" />
        </mxCell>
        <mxCell id="KbhzVzWAwsDYyx5UwJqk-21" value="" style="group" parent="1" vertex="1" connectable="0">
          <mxGeometry x="202.3" y="250" width="65.39" height="110" as="geometry" />
        </mxCell>
        <mxCell id="KbhzVzWAwsDYyx5UwJqk-17" value="CRM" style="image;aspect=fixed;html=1;points=[];align=center;fontSize=12;image=img/lib/azure2/general/Folder_Blank.svg;" parent="KbhzVzWAwsDYyx5UwJqk-21" vertex="1">
          <mxGeometry x="8.05" y="70" width="49.29" height="40" as="geometry" />
        </mxCell>
        <mxCell id="KbhzVzWAwsDYyx5UwJqk-18" value="" style="image;aspect=fixed;html=1;points=[];align=center;fontSize=12;image=img/lib/azure2/general/File.svg;" parent="KbhzVzWAwsDYyx5UwJqk-21" vertex="1">
          <mxGeometry x="45.12744700784634" y="85.5216934394235" width="19.861882600210176" height="24.478306560576485" as="geometry" />
        </mxCell>
        <mxCell id="KbhzVzWAwsDYyx5UwJqk-22" value="" style="group" parent="1" vertex="1" connectable="0">
          <mxGeometry x="210" y="420" width="50" height="40" as="geometry" />
        </mxCell>
        <mxCell id="KbhzVzWAwsDYyx5UwJqk-23" value="ERP" style="image;aspect=fixed;html=1;points=[];align=center;fontSize=12;image=img/lib/azure2/general/Folder_Blank.svg;" parent="KbhzVzWAwsDYyx5UwJqk-22" vertex="1">
          <mxGeometry width="45.263278803040066" height="36.73408373566529" as="geometry" />
        </mxCell>
        <mxCell id="KbhzVzWAwsDYyx5UwJqk-24" value="" style="image;aspect=fixed;html=1;points=[];align=center;fontSize=12;image=img/lib/azure2/general/File.svg;" parent="KbhzVzWAwsDYyx5UwJqk-22" vertex="1">
          <mxGeometry x="34.50638248038411" y="20.417354751538806" width="15.18724774446412" height="18.717163603438205" as="geometry" />
        </mxCell>
        <mxCell id="KbhzVzWAwsDYyx5UwJqk-25" value="" style="shape=link;html=1;rounded=0;" parent="1" edge="1">
          <mxGeometry width="100" relative="1" as="geometry">
            <mxPoint x="192.7" y="495" as="sourcePoint" />
            <mxPoint x="292.7" y="495" as="targetPoint" />
          </mxGeometry>
        </mxCell>
        <mxCell id="KbhzVzWAwsDYyx5UwJqk-26" value="&lt;font style=&quot;font-size: 9px;&quot;&gt;&lt;b style=&quot;&quot;&gt;Object&lt;/b&gt; &lt;b style=&quot;&quot;&gt;Type: &lt;/b&gt;CSV Files&lt;br&gt;&lt;b style=&quot;&quot;&gt;Interface:&amp;nbsp;&lt;/b&gt;Files in Folder&lt;/font&gt;" style="text;html=1;align=left;verticalAlign=middle;whiteSpace=wrap;rounded=0;" parent="1" vertex="1">
          <mxGeometry x="190" y="505" width="110" height="50" as="geometry" />
        </mxCell>
        <mxCell id="KbhzVzWAwsDYyx5UwJqk-27" value="" style="html=1;verticalLabelPosition=bottom;align=center;labelBackgroundColor=#ffffff;verticalAlign=top;strokeWidth=2;strokeColor=#6D1F00;shadow=0;dashed=0;shape=mxgraph.ios7.icons.data;fillColor=#a0522d;fontColor=#ffffff;" parent="1" vertex="1">
          <mxGeometry x="430" y="370" width="44" height="45.1" as="geometry" />
        </mxCell>
        <mxCell id="KbhzVzWAwsDYyx5UwJqk-31" value="" style="html=1;verticalLabelPosition=bottom;align=center;labelBackgroundColor=#ffffff;verticalAlign=top;strokeWidth=2;strokeColor=#314354;shadow=0;dashed=0;shape=mxgraph.ios7.icons.data;fillColor=#647687;fontColor=#ffffff;" parent="1" vertex="1">
          <mxGeometry x="586.75" y="370" width="44" height="45.1" as="geometry" />
        </mxCell>
        <mxCell id="KbhzVzWAwsDYyx5UwJqk-32" value="" style="html=1;verticalLabelPosition=bottom;align=center;labelBackgroundColor=#ffffff;verticalAlign=top;strokeWidth=2;strokeColor=#BD7000;shadow=0;dashed=0;shape=mxgraph.ios7.icons.data;fillColor=#f0a30a;fontColor=#000000;" parent="1" vertex="1">
          <mxGeometry x="747" y="370" width="44" height="45.1" as="geometry" />
        </mxCell>
        <mxCell id="KbhzVzWAwsDYyx5UwJqk-33" value="" style="shape=flexArrow;endArrow=classic;html=1;rounded=0;width=12.571428571428571;endSize=7.097142857142857;fillColor=#dae8fc;gradientColor=#7ea6e0;strokeColor=#6c8ebf;opacity=70;" parent="1" edge="1">
          <mxGeometry width="50" height="50" relative="1" as="geometry">
            <mxPoint x="310" y="414.41" as="sourcePoint" />
            <mxPoint x="352" y="414.41" as="targetPoint" />
          </mxGeometry>
        </mxCell>
        <mxCell id="KbhzVzWAwsDYyx5UwJqk-37" value="&lt;font&gt;Raw Data&lt;/font&gt;" style="text;html=1;align=center;verticalAlign=middle;whiteSpace=wrap;rounded=0;fontSize=12;" parent="1" vertex="1">
          <mxGeometry x="407" y="427" width="90" height="30" as="geometry" />
        </mxCell>
        <mxCell id="KbhzVzWAwsDYyx5UwJqk-38" value="&lt;font&gt;Cleaned, Standardized Data&lt;/font&gt;" style="text;html=1;align=center;verticalAlign=middle;whiteSpace=wrap;rounded=0;fontSize=12;" parent="1" vertex="1">
          <mxGeometry x="560.5" y="412" width="100.5" height="60" as="geometry" />
        </mxCell>
        <mxCell id="KbhzVzWAwsDYyx5UwJqk-39" value="&lt;font&gt;Business ready Data&lt;/font&gt;" style="text;html=1;align=center;verticalAlign=middle;whiteSpace=wrap;rounded=0;fontSize=12;" parent="1" vertex="1">
          <mxGeometry x="735" y="427" width="68" height="30" as="geometry" />
        </mxCell>
        <mxCell id="KbhzVzWAwsDYyx5UwJqk-44" value="" style="shape=link;html=1;rounded=0;" parent="1" edge="1">
          <mxGeometry width="100" relative="1" as="geometry">
            <mxPoint x="414" y="477" as="sourcePoint" />
            <mxPoint x="486" y="477" as="targetPoint" />
          </mxGeometry>
        </mxCell>
        <mxCell id="KbhzVzWAwsDYyx5UwJqk-45" value="" style="shape=link;html=1;rounded=0;" parent="1" edge="1">
          <mxGeometry width="100" relative="1" as="geometry">
            <mxPoint x="572.75" y="477" as="sourcePoint" />
            <mxPoint x="644.75" y="477" as="targetPoint" />
          </mxGeometry>
        </mxCell>
        <mxCell id="KbhzVzWAwsDYyx5UwJqk-46" value="" style="shape=link;html=1;rounded=0;" parent="1" edge="1">
          <mxGeometry width="100" relative="1" as="geometry">
            <mxPoint x="737" y="476" as="sourcePoint" />
            <mxPoint x="809" y="476" as="targetPoint" />
          </mxGeometry>
        </mxCell>
        <mxCell id="KbhzVzWAwsDYyx5UwJqk-48" value="BI &amp;amp; Reporting" style="verticalLabelPosition=bottom;sketch=0;aspect=fixed;html=1;verticalAlign=top;strokeColor=none;align=center;outlineConnect=0;shape=mxgraph.citrix.reporting;" parent="1" vertex="1">
          <mxGeometry x="990" y="296.78" width="29.57" height="33.17" as="geometry" />
        </mxCell>
        <mxCell id="KbhzVzWAwsDYyx5UwJqk-49" value="SQL Queries" style="sketch=0;outlineConnect=0;fontColor=light-dark(#232F3E, #ffffff);gradientColor=none;fillColor=#8C4FFF;strokeColor=none;dashed=0;verticalLabelPosition=bottom;verticalAlign=top;align=center;html=1;fontSize=12;fontStyle=0;aspect=fixed;pointerEvents=1;shape=mxgraph.aws4.athena_data_source_connectors;" parent="1" vertex="1">
          <mxGeometry x="968.43" y="392.95" width="56.27" height="57" as="geometry" />
        </mxCell>
        <mxCell id="KbhzVzWAwsDYyx5UwJqk-51" value="Machine Learning" style="sketch=0;outlineConnect=0;fontColor=light-dark(#232F3E, #ffffff);gradientColor=none;fillColor=#7AA116;strokeColor=none;dashed=0;verticalLabelPosition=bottom;verticalAlign=top;align=center;html=1;fontSize=12;fontStyle=0;aspect=fixed;pointerEvents=1;shape=mxgraph.aws4.iot_greengrass_component_machine_learning;" parent="1" vertex="1">
          <mxGeometry x="975" y="504.95" width="55" height="55" as="geometry" />
        </mxCell>
        <mxCell id="_ybv_rkcB9CRCWcr4xD5-3" value="" style="shape=flexArrow;endArrow=classic;html=1;rounded=0;width=12.571428571428571;endSize=7.097142857142857;fillColor=#dae8fc;gradientColor=#7ea6e0;strokeColor=#6c8ebf;opacity=70;" edge="1" parent="1">
          <mxGeometry width="50" height="50" relative="1" as="geometry">
            <mxPoint x="511" y="415.1" as="sourcePoint" />
            <mxPoint x="553" y="415.1" as="targetPoint" />
          </mxGeometry>
        </mxCell>
        <mxCell id="_ybv_rkcB9CRCWcr4xD5-4" value="" style="shape=flexArrow;endArrow=classic;html=1;rounded=0;width=12.571428571428571;endSize=7.097142857142857;fillColor=#dae8fc;gradientColor=#7ea6e0;strokeColor=#6c8ebf;opacity=70;" edge="1" parent="1">
          <mxGeometry width="50" height="50" relative="1" as="geometry">
            <mxPoint x="671" y="415.1" as="sourcePoint" />
            <mxPoint x="713" y="415.1" as="targetPoint" />
          </mxGeometry>
        </mxCell>
        <mxCell id="_ybv_rkcB9CRCWcr4xD5-5" value="" style="shape=flexArrow;endArrow=classic;html=1;rounded=0;width=12.571428571428571;endSize=7.097142857142857;fillColor=#dae8fc;gradientColor=#7ea6e0;strokeColor=#6c8ebf;opacity=70;" edge="1" parent="1">
          <mxGeometry width="50" height="50" relative="1" as="geometry">
            <mxPoint x="890" y="415.1" as="sourcePoint" />
            <mxPoint x="932" y="415.1" as="targetPoint" />
          </mxGeometry>
        </mxCell>
        <mxCell id="_ybv_rkcB9CRCWcr4xD5-6" value="&lt;font style=&quot;font-size: 8px;&quot;&gt;&lt;b&gt;Object Type : &lt;/b&gt;Tables&lt;/font&gt;" style="text;html=1;align=center;verticalAlign=middle;whiteSpace=wrap;rounded=0;" vertex="1" parent="1">
          <mxGeometry x="403" y="490" width="97" height="20" as="geometry" />
        </mxCell>
        <mxCell id="_ybv_rkcB9CRCWcr4xD5-10" value="&lt;font style=&quot;font-size: 8px;&quot;&gt;&lt;b&gt;Object Type : &lt;/b&gt;Tables&lt;/font&gt;" style="text;html=1;align=center;verticalAlign=middle;whiteSpace=wrap;rounded=0;" vertex="1" parent="1">
          <mxGeometry x="560.5" y="490" width="100" height="20" as="geometry" />
        </mxCell>
        <mxCell id="_ybv_rkcB9CRCWcr4xD5-11" value="&lt;font style=&quot;font-size: 8px;&quot;&gt;&lt;b&gt;Object Type : &lt;/b&gt;Views&lt;/font&gt;" style="text;html=1;align=center;verticalAlign=middle;whiteSpace=wrap;rounded=0;" vertex="1" parent="1">
          <mxGeometry x="722" y="490" width="100" height="20" as="geometry" />
        </mxCell>
        <mxCell id="_ybv_rkcB9CRCWcr4xD5-12" value="Load:" style="text;html=1;align=left;verticalAlign=top;whiteSpace=wrap;rounded=0;fontSize=7;" vertex="1" parent="1">
          <mxGeometry x="402" y="510" width="98" height="20" as="geometry" />
        </mxCell>
        <mxCell id="_ybv_rkcB9CRCWcr4xD5-13" value="&lt;div&gt;&lt;ul&gt;&lt;li style=&quot;&quot;&gt;&lt;span style=&quot;background-color: transparent; color: light-dark(rgb(0, 0, 0), rgb(255, 255, 255));&quot;&gt;Batch Processing&lt;/span&gt;&lt;/li&gt;&lt;li style=&quot;&quot;&gt;&lt;span style=&quot;background-color: transparent; color: light-dark(rgb(0, 0, 0), rgb(255, 255, 255));&quot;&gt;Full Load&lt;/span&gt;&lt;/li&gt;&lt;li style=&quot;&quot;&gt;&lt;span style=&quot;background-color: transparent; color: light-dark(rgb(0, 0, 0), rgb(255, 255, 255));&quot;&gt;Truncate &amp;amp; Insert&lt;/span&gt;&lt;/li&gt;&lt;/ul&gt;&lt;/div&gt;" style="text;html=1;align=left;verticalAlign=middle;whiteSpace=wrap;rounded=0;fontSize=7;" vertex="1" parent="1">
          <mxGeometry x="380" y="525" width="130" height="35" as="geometry" />
        </mxCell>
        <mxCell id="_ybv_rkcB9CRCWcr4xD5-14" value="No &lt;b&gt;Transformaations&lt;/b&gt;" style="text;html=1;align=center;verticalAlign=middle;whiteSpace=wrap;rounded=0;fontSize=8;" vertex="1" parent="1">
          <mxGeometry x="403" y="560" width="97" height="15" as="geometry" />
        </mxCell>
        <mxCell id="_ybv_rkcB9CRCWcr4xD5-15" value="&lt;br&gt;&lt;div&gt;&lt;ul&gt;&lt;li style=&quot;&quot;&gt;&lt;span style=&quot;background-color: transparent; color: light-dark(rgb(0, 0, 0), rgb(255, 255, 255));&quot;&gt;Batch Processing&lt;/span&gt;&lt;/li&gt;&lt;li style=&quot;&quot;&gt;&lt;span style=&quot;background-color: transparent; color: light-dark(rgb(0, 0, 0), rgb(255, 255, 255));&quot;&gt;Full Load&lt;/span&gt;&lt;/li&gt;&lt;li style=&quot;&quot;&gt;&lt;span style=&quot;background-color: transparent; color: light-dark(rgb(0, 0, 0), rgb(255, 255, 255));&quot;&gt;Truncate &amp;amp; Insert&lt;/span&gt;&lt;/li&gt;&lt;/ul&gt;&lt;/div&gt;" style="text;html=1;align=left;verticalAlign=top;whiteSpace=wrap;rounded=0;fontSize=7;" vertex="1" parent="1">
          <mxGeometry x="540" y="505" width="98" height="50" as="geometry" />
        </mxCell>
        <mxCell id="_ybv_rkcB9CRCWcr4xD5-16" value="&lt;font style=&quot;font-size: 7px;&quot;&gt;Load:&lt;/font&gt;" style="text;html=1;align=left;verticalAlign=middle;whiteSpace=wrap;rounded=0;fontSize=6;" vertex="1" parent="1">
          <mxGeometry x="561" y="515" width="60" height="10" as="geometry" />
        </mxCell>
        <mxCell id="_ybv_rkcB9CRCWcr4xD5-17" value="&lt;font style=&quot;font-size: 7px;&quot;&gt;&lt;b&gt;Transformations:&lt;/b&gt;&lt;/font&gt;" style="text;html=1;align=left;verticalAlign=middle;whiteSpace=wrap;rounded=0;fontSize=6;" vertex="1" parent="1">
          <mxGeometry x="560.5" y="562.5" width="60" height="10" as="geometry" />
        </mxCell>
        <mxCell id="_ybv_rkcB9CRCWcr4xD5-18" value="&lt;ul&gt;&lt;li&gt;Data Cleansing&lt;/li&gt;&lt;li&gt;Data Standarization&lt;/li&gt;&lt;li&gt;Data Normalization&lt;/li&gt;&lt;li&gt;Derived Columns&lt;/li&gt;&lt;li&gt;Data Enrichment&lt;/li&gt;&lt;/ul&gt;" style="text;html=1;align=left;verticalAlign=middle;whiteSpace=wrap;rounded=0;fontSize=8;labelPosition=center;verticalLabelPosition=middle;spacing=2;textDirection=ltr;" vertex="1" parent="1">
          <mxGeometry x="540" y="568" width="120" height="65" as="geometry" />
        </mxCell>
        <mxCell id="KbhzVzWAwsDYyx5UwJqk-8" value="Data Warehouse" style="rounded=0;whiteSpace=wrap;html=1;fillColor=default;strokeColor=none;fontSize=24;labelBackgroundColor=default;" parent="1" vertex="1">
          <mxGeometry x="510" y="170" width="226.5" height="40" as="geometry" />
        </mxCell>
        <mxCell id="_ybv_rkcB9CRCWcr4xD5-20" value="No &lt;b&gt;Load&lt;/b&gt;" style="text;html=1;align=left;verticalAlign=top;whiteSpace=wrap;rounded=0;fontSize=7;" vertex="1" parent="1">
          <mxGeometry x="724" y="510" width="98" height="20" as="geometry" />
        </mxCell>
        <mxCell id="_ybv_rkcB9CRCWcr4xD5-21" value="&lt;font style=&quot;font-size: 7px;&quot;&gt;&lt;b&gt;Transformations:&lt;/b&gt;&lt;/font&gt;" style="text;html=1;align=left;verticalAlign=middle;whiteSpace=wrap;rounded=0;fontSize=6;" vertex="1" parent="1">
          <mxGeometry x="724" y="530" width="60" height="10" as="geometry" />
        </mxCell>
        <mxCell id="_ybv_rkcB9CRCWcr4xD5-22" value="&lt;ul&gt;&lt;li&gt;&lt;font&gt;Data Integrations&lt;/font&gt;&lt;/li&gt;&lt;li&gt;&lt;font&gt;Aggregations&lt;/font&gt;&lt;/li&gt;&lt;li&gt;&lt;font&gt;Business Logics&lt;/font&gt;&lt;/li&gt;&lt;/ul&gt;" style="text;html=1;align=left;verticalAlign=middle;whiteSpace=wrap;rounded=0;fontSize=8;labelPosition=center;verticalLabelPosition=middle;spacing=2;textDirection=ltr;" vertex="1" parent="1">
          <mxGeometry x="702" y="530" width="120" height="65" as="geometry" />
        </mxCell>
        <mxCell id="_ybv_rkcB9CRCWcr4xD5-23" value="&lt;font style=&quot;font-size: 8px;&quot;&gt;&lt;b&gt;Data Model:&lt;/b&gt;&lt;/font&gt;" style="text;html=1;align=left;verticalAlign=middle;whiteSpace=wrap;rounded=0;" vertex="1" parent="1">
          <mxGeometry x="723" y="580" width="97" height="10" as="geometry" />
        </mxCell>
        <mxCell id="_ybv_rkcB9CRCWcr4xD5-25" value="&lt;ul&gt;&lt;li&gt;Star Schema&lt;/li&gt;&lt;li&gt;&lt;font&gt;Flat Table&lt;/font&gt;&lt;/li&gt;&lt;li&gt;Aggregated Table&lt;/li&gt;&lt;/ul&gt;" style="text;html=1;align=left;verticalAlign=middle;whiteSpace=wrap;rounded=0;fontSize=8;labelPosition=center;verticalLabelPosition=middle;spacing=2;textDirection=ltr;" vertex="1" parent="1">
          <mxGeometry x="702" y="580" width="120" height="65" as="geometry" />
        </mxCell>
      </root>
    </mxGraphModel>
  </diagram>
</mxfile>
